<?xml version="1.0" encoding="UTF-8" standalone="no" ?>
<!DOCTYPE svg PUBLIC "-//W3C//DTD SVG 1.1//EN" "http://www.w3.org/Graphics/SVG/1.1/DTD/svg11.dtd">
<svg xmlns="http://www.w3.org/2000/svg" xmlns:xlink="http://www.w3.org/1999/xlink" version="1.1" width="1080" height="1080" viewBox="0 0 1080 1080" xml:space="preserve">
<desc>Created with Fabric.js 5.2.4</desc>
<defs>
</defs>
<g transform="matrix(1 0 0 1 540 540)" id="eadc549c-8974-4de0-ba50-cece91a58882"  >
<rect style="stroke: none; stroke-width: 1; stroke-dasharray: none; stroke-linecap: butt; stroke-dashoffset: 0; stroke-linejoin: miter; stroke-miterlimit: 4; fill: rgb(255,255,255); fill-rule: nonzero; opacity: 1; visibility: hidden;" vector-effect="non-scaling-stroke"  x="-540" y="-540" rx="0" ry="0" width="1080" height="1080" />
</g>
<g transform="matrix(1 0 0 1 540 540)" id="3b40d3dd-62e5-435c-b192-0b0f817acf21"  >
</g>
<g transform="matrix(2.92 0 0 2.92 540 540)"  >
<g style=""   >
		<g transform="matrix(0.68 0 0 0.68 -136.03 0)" id="SvgjsG4112"  >
<linearGradient id="SVGID_SvgjsLinearGradient4116_3" gradientUnits="objectBoundingBox" gradientTransform="matrix(1 0 0 1 0 0)"  x1="0" y1="0" x2="1" y2="0">
<stop offset="0%" style="stop-color:rgb(0,221,255);stop-opacity: 1"/>
<stop offset="100%" style="stop-color:rgb(255,0,212);stop-opacity: 1"/>
</linearGradient>
<path style="stroke: none; stroke-width: 1; stroke-dasharray: none; stroke-linecap: butt; stroke-dashoffset: 0; stroke-linejoin: miter; stroke-miterlimit: 4; fill: url(#SVGID_SvgjsLinearGradient4116_3); fill-rule: evenodd; opacity: 1;" vector-effect="non-scaling-stroke"  transform=" translate(204.5, -397.5)" d="M -167.5 390.5 C -168.6 390.5 -169.5 389.6 -169.5 388.5 C -169.5 387.4 -168.6 386.5 -167.5 386.5 C -166.4 386.5 -165.5 387.4 -165.5 388.5 C -165.5 389.6 -166.4 390.5 -167.5 390.5 z M -177.5 428.5 C -179.7 428.5 -181.5 426.7 -181.5 424.5 C -181.5 422.3 -179.7 420.5 -177.5 420.5 C -175.3 420.5 -173.5 422.3 -173.5 424.5 C -173.5 426.7 -175.3 428.5 -177.5 428.5 z M -177.5 410.5 C -179.7 410.5 -181.5 408.7 -181.5 406.5 C -181.5 404.3 -179.7 402.5 -177.5 402.5 C -175.3 402.5 -173.5 404.3 -173.5 406.5 C -173.5 408.7 -175.3 410.5 -177.5 410.5 z M -177.5 392.5 C -179.7 392.5 -181.5 390.7 -181.5 388.5 C -181.5 386.3 -179.7 384.5 -177.5 384.5 C -175.3 384.5 -173.5 386.3 -173.5 388.5 C -173.5 390.7 -175.3 392.5 -177.5 392.5 z M -177.5 374.5 C -179.7 374.5 -181.5 372.7 -181.5 370.5 C -181.5 368.3 -179.7 366.5 -177.5 366.5 C -175.3 366.5 -173.5 368.3 -173.5 370.5 C -173.5 372.7 -175.3 374.5 -177.5 374.5 z M -194.5 414.5 C -198.4 414.5 -201.5 411.4 -201.5 407.5 C -201.5 403.6 -198.4 400.5 -194.5 400.5 C -190.6 400.5 -187.5 403.6 -187.5 407.5 C -187.5 411.4 -190.6 414.5 -194.5 414.5 z M -194.5 394.5 C -198.4 394.5 -201.5 391.4 -201.5 387.5 C -201.5 383.6 -198.4 380.5 -194.5 380.5 C -190.6 380.5 -187.5 383.6 -187.5 387.5 C -187.5 391.4 -190.6 394.5 -194.5 394.5 z M -195.5 374.5 C -197.7 374.5 -199.5 372.7 -199.5 370.5 C -199.5 368.3 -197.7 366.5 -195.5 366.5 C -193.3 366.5 -191.5 368.3 -191.5 370.5 C -191.5 372.7 -193.3 374.5 -195.5 374.5 z M -195.5 362.5 C -196.6 362.5 -197.5 361.6 -197.5 360.5 C -197.5 359.4 -196.6 358.5 -195.5 358.5 C -194.4 358.5 -193.5 359.4 -193.5 360.5 C -193.5 361.6 -194.4 362.5 -195.5 362.5 z M -214.5 414.5 C -218.4 414.5 -221.5 411.4 -221.5 407.5 C -221.5 403.6 -218.4 400.5 -214.5 400.5 C -210.6 400.5 -207.5 403.6 -207.5 407.5 C -207.5 411.4 -210.6 414.5 -214.5 414.5 z M -214.5 394.5 C -218.4 394.5 -221.5 391.4 -221.5 387.5 C -221.5 383.6 -218.4 380.5 -214.5 380.5 C -210.6 380.5 -207.5 383.6 -207.5 387.5 C -207.5 391.4 -210.6 394.5 -214.5 394.5 z M -213.5 374.5 C -215.7 374.5 -217.5 372.7 -217.5 370.5 C -217.5 368.3 -215.7 366.5 -213.5 366.5 C -211.3 366.5 -209.5 368.3 -209.5 370.5 C -209.5 372.7 -211.3 374.5 -213.5 374.5 z M -213.5 362.5 C -214.6 362.5 -215.5 361.6 -215.5 360.5 C -215.5 359.4 -214.6 358.5 -213.5 358.5 C -212.4 358.5 -211.5 359.4 -211.5 360.5 C -211.5 361.6 -212.4 362.5 -213.5 362.5 z M -231.5 374.5 C -233.7 374.5 -235.5 372.7 -235.5 370.5 C -235.5 368.3 -233.7 366.5 -231.5 366.5 C -229.3 366.5 -227.5 368.3 -227.5 370.5 C -227.5 372.7 -229.3 374.5 -231.5 374.5 z M -231.5 384.5 C -229.3 384.5 -227.5 386.3 -227.5 388.5 C -227.5 390.7 -229.3 392.5 -231.5 392.5 C -233.7 392.5 -235.5 390.7 -235.5 388.5 C -235.5 386.3 -233.7 384.5 -231.5 384.5 z M -241.5 408.5 C -242.6 408.5 -243.5 407.6 -243.5 406.5 C -243.5 405.4 -242.6 404.5 -241.5 404.5 C -240.4 404.5 -239.5 405.4 -239.5 406.5 C -239.5 407.6 -240.4 408.5 -241.5 408.5 z M -241.5 390.5 C -242.6 390.5 -243.5 389.6 -243.5 388.5 C -243.5 387.4 -242.6 386.5 -241.5 386.5 C -240.4 386.5 -239.5 387.4 -239.5 388.5 C -239.5 389.6 -240.4 390.5 -241.5 390.5 z M -231.5 402.5 C -229.3 402.5 -227.5 404.3 -227.5 406.5 C -227.5 408.7 -229.3 410.5 -231.5 410.5 C -233.7 410.5 -235.5 408.7 -235.5 406.5 C -235.5 404.3 -233.7 402.5 -231.5 402.5 z M -231.5 420.5 C -229.3 420.5 -227.5 422.3 -227.5 424.5 C -227.5 426.7 -229.3 428.5 -231.5 428.5 C -233.7 428.5 -235.5 426.7 -235.5 424.5 C -235.5 422.3 -233.7 420.5 -231.5 420.5 z M -213.5 420.5 C -211.3 420.5 -209.5 422.3 -209.5 424.5 C -209.5 426.7 -211.3 428.5 -213.5 428.5 C -215.7 428.5 -217.5 426.7 -217.5 424.5 C -217.5 422.3 -215.7 420.5 -213.5 420.5 z M -213.5 432.5 C -212.4 432.5 -211.5 433.4 -211.5 434.5 C -211.5 435.6 -212.4 436.5 -213.5 436.5 C -214.6 436.5 -215.5 435.6 -215.5 434.5 C -215.5 433.4 -214.6 432.5 -213.5 432.5 z M -195.5 420.5 C -193.3 420.5 -191.5 422.3 -191.5 424.5 C -191.5 426.7 -193.3 428.5 -195.5 428.5 C -197.7 428.5 -199.5 426.7 -199.5 424.5 C -199.5 422.3 -197.7 420.5 -195.5 420.5 z M -195.5 432.5 C -194.4 432.5 -193.5 433.4 -193.5 434.5 C -193.5 435.6 -194.4 436.5 -195.5 436.5 C -196.6 436.5 -197.5 435.6 -197.5 434.5 C -197.5 433.4 -196.6 432.5 -195.5 432.5 z M -167.5 404.5 C -166.4 404.5 -165.5 405.4 -165.5 406.5 C -165.5 407.6 -166.4 408.5 -167.5 408.5 C -168.6 408.5 -169.5 407.6 -169.5 406.5 C -169.5 405.4 -168.6 404.5 -167.5 404.5 z" stroke-linecap="round" />
</g>
		<g transform="matrix(0.54 0 0 0.54 35.18 0.31)" id="SvgjsG4113"  >
<linearGradient id="SVGID_SvgjsLinearGradient4119_4" gradientUnits="objectBoundingBox" gradientTransform="matrix(1 0 0 1 0 0)"  x1="0" y1="0" x2="1" y2="0">
<stop offset="0%" style="stop-color:rgb(0,221,255);stop-opacity: 1"/>
<stop offset="100%" style="stop-color:rgb(255,0,212);stop-opacity: 1"/>
</linearGradient>
<path style="stroke: none; stroke-width: 1; stroke-dasharray: none; stroke-linecap: butt; stroke-dashoffset: 0; stroke-linejoin: miter; stroke-miterlimit: 4; fill: url(#SVGID_SvgjsLinearGradient4119_4); fill-rule: nonzero; opacity: 1;" vector-effect="non-scaling-stroke"  transform=" translate(-241.09, -19.92)" d="M 34.609 25 C 34.24439 24.01039 33.723690000000005 23.1512 33.046600000000005 22.422 C 32.577850000000005 21.90114 31.822600000000005 21.3022 30.781000000000006 20.625 C 29.635100000000005 20.05211 28.619500000000006 19.6094 27.734100000000005 19.2969 C 28.359100000000005 18.932290000000002 29.036200000000004 18.51565 29.765400000000007 18.0469 C 30.494540000000008 17.4219 31.041400000000007 16.8229 31.406000000000006 16.25 C 31.874750000000006 15.625 32.26538000000001 14.8698 32.57790000000001 13.9844 C 32.89040000000001 13.0469 33.04665000000001 12.031300000000002 33.04665000000001 10.9375 C 33.04665000000001 8.020900000000001 31.952850000000005 5.7031 29.765350000000005 3.9844 C 27.577850000000005 2.2657 24.609050000000003 1.4062999999999999 20.859050000000003 1.4062999999999999 L 6.406050000000004 1.4062999999999999 L 6.406050000000004 7.1876 L 20.078050000000005 7.1876 C 22.057150000000004 7.1876 23.671850000000006 7.60424 24.921850000000006 8.4376 C 26.015650000000008 9.27096 26.562450000000005 10.4689 26.562450000000005 12.0314 C 26.562450000000005 13.802299999999999 25.937450000000005 15.078299999999999 24.687450000000005 15.8595 C 23.385350000000006 16.69286 21.692650000000004 17.1095 19.609250000000007 17.1095 L 6.406250000000007 17.1095 L 6.406250000000007 22.5783 L 21.01525000000001 22.5783 C 23.51525000000001 22.5783 25.41625000000001 23.02103 26.718350000000008 23.906399999999998 C 27.968350000000008 24.843899999999998 28.593350000000008 26.093899999999998 28.593350000000008 27.656399999999998 C 28.593350000000008 29.322999999999997 27.968350000000008 30.599099999999996 26.718350000000008 31.484399999999997 C 25.41625000000001 32.369789999999995 23.671450000000007 32.8125 21.483950000000007 32.8125 L 6.405950000000008 32.8125 L 6.405950000000008 38.5938 L 21.405950000000008 38.5938 C 23.437250000000006 38.5938 25.312250000000006 38.35942 27.030950000000008 37.89067 C 28.80185000000001 37.36981 30.234050000000007 36.71877 31.32785000000001 35.93757 C 32.421650000000014 35.15637 33.35915000000001 34.088570000000004 34.14035000000001 32.73447 C 34.76535000000001 31.48447 35.07785000000001 30.02607 35.07785000000001 28.35947 C 35.07785000000001 27.057370000000002 34.92160000000001 25.93757 34.60910000000001 25.00007 z M 47.0313 1.4059999999999988 L 53.4376 1.4059999999999988 L 53.4376 32.656 L 72.96860000000001 32.656 L 72.96860000000001 38.5935 L 47.03060000000001 38.5935 L 47.03060000000001 1.4054999999999964 z M 97.344 32.6562 C 96.56275 32.49995 95.8335 32.265499999999996 95.15639999999999 31.953 C 93.698 31.27589 92.422 30.3384 91.32829999999998 29.1405 C 90.28669999999998 28.046699999999998 89.45329999999998 26.6926 88.82829999999998 25.078 C 88.25540999999998 23.4634 87.96891999999998 21.8228 87.96891999999998 20.1561 L 87.96891999999998 19.99985 L 87.96891999999998 19.765469999999997 C 87.96891999999998 18.046669999999995 88.25539999999998 16.380069999999996 88.82829999999998 14.765469999999997 C 89.50540999999998 13.098869999999996 90.33879999999998 11.770669999999997 91.32839999999999 10.781069999999996 C 92.36999999999999 9.583169999999996 93.61999999999999 8.671669999999995 95.07839999999999 8.046669999999995 C 95.96378999999999 7.630029999999995 96.719 7.369639999999995 97.344 7.265499999999995 L 97.344 1.406099999999995 C 95.52109999999999 1.6664899999999951 93.9065 2.109229999999995 92.50019999999999 2.734199999999995 C 90.20859999999999 3.723809999999995 88.2554 5.0518999999999945 86.6408 6.718599999999995 C 85.0262 8.385299999999996 83.75019999999999 10.364399999999995 82.81269999999999 12.655999999999995 C 81.87519999999999 14.947599999999996 81.40639999999999 17.343499999999995 81.40639999999999 19.843499999999995 L 81.40639999999999 19.999749999999995 L 81.40639999999999 20.234129999999997 C 81.40639999999999 22.786229999999996 81.87514999999999 25.182129999999997 82.81269999999999 27.421729999999997 C 83.64605999999999 29.661329999999996 84.89609999999999 31.61443 86.56269999999999 33.28113 C 88.2293 34.99993 90.18249999999999 36.32803 92.42209999999999 37.26553 C 93.82839999999999 37.89053 95.46899999999998 38.33323 97.34399999999998 38.59363 L 97.34399999999998 32.65613 z M 118.594 20 L 118.59407629399999 19.76562 C 118.59407629399999 17.21352 118.12532629399999 14.817619999999998 117.18777629399999 12.578019999999999 C 116.25027629399999 10.28642 114.97427629399999 8.307219999999997 113.35967629399998 6.640619999999998 C 111.79717629399998 4.9740199999999986 109.87007629399999 3.6718199999999985 107.57837629399998 2.7343199999999985 C 106.27627629399998 2.1093199999999985 104.68777629399997 1.6666199999999984 102.81277629399997 1.4062199999999985 L 102.81277629399997 7.3437199999999985 L 103.75027629399997 7.6562199999999985 C 104.21902629399997 7.8124699999999985 104.58363629399997 7.9426999999999985 104.84407629399998 8.04685 C 106.30247629399997 8.72396 107.57847629399997 9.661449999999999 108.67217629399998 10.85935 C 109.71377629399998 11.953149999999999 110.54717629399998 13.30725 111.17217629399998 14.92185 C 111.74506629399998 16.53645 112.03155629399998 18.177049999999998 112.03155629399998 19.84375 L 112.03155629399998 20 L 112.03155629399998 20.23438 C 112.03155629399998 21.953180000000003 111.74507629399999 23.619780000000002 111.17217629399998 25.23438 C 110.49506629399998 26.90098 109.66167629399999 28.229180000000003 108.67207629399998 29.218780000000002 C 107.63047629399998 30.416680000000003 106.38047629399998 31.328180000000003 104.92207629399998 31.953180000000003 C 104.24496629399998 32.26568 103.54187629399998 32.500060000000005 102.81267629399998 32.656310000000005 L 102.81267629399998 38.593810000000005 C 104.37517629399998 38.385450000000006 105.93767629399998 37.94272000000001 107.50017629399998 37.26561 C 109.63557629399999 36.38022 111.58867629399998 35.05211 113.35957629399998 33.28121 C 115.07837629399998 31.45831 116.35437629399998 29.479210000000002 117.18767629399998 27.34381 C 118.12517629399998 25.052210000000002 118.59397629399999 22.65631 118.59397629399999 20.15631 L 118.59397629399999 20.00006 z M 127.2656 12.5 C 128.2031 10.208400000000001 129.5572 8.2553 131.328 6.6407 C 132.9426 5.0261 135.026 3.7239999999999998 137.5781 2.7344 C 140.1302 1.7448000000000001 142.8125 1.25 145.625 1.25 L 154.2969 1.25 L 154.2969 7.1875 L 145.7031 7.1875 C 143.67180000000002 7.1875 141.875 7.52602 140.3125 8.2031 C 138.6459 8.88021 137.2917 9.7656 136.2501 10.859399999999999 C 135.15630000000002 11.901 134.27100000000002 13.255199999999999 133.59380000000002 14.9218 C 132.96880000000002 16.432199999999998 132.65630000000002 18.1249 132.65630000000002 19.9999 C 132.65630000000002 21.8749 132.96880000000002 23.5676 133.59380000000002 25.078 C 134.21880000000002 26.6405 135.10420000000002 27.9946 136.2501 29.1405 C 137.2917 30.1821 138.6459 31.0415 140.3125 31.7186 C 141.9791 32.343599999999995 143.776 32.656099999999995 145.7031 32.656099999999995 L 154.2969 32.656099999999995 L 154.2969 38.593599999999995 L 145.625 38.593599999999995 C 142.7084 38.593599999999995 140.0521 38.124849999999995 137.6562 37.18729999999999 C 135.1562 36.14569999999999 133.04680000000002 34.817499999999995 131.3281 33.20289999999999 C 129.5572 31.536299999999994 128.2031 29.55709999999999 127.2656 27.265499999999992 C 126.27599000000001 24.86959999999999 125.78120000000001 22.421699999999994 125.78120000000001 19.921699999999994 C 125.78120000000001 17.265399999999993 126.27597000000002 14.791499999999994 127.2656 12.499799999999993 z M 196.641 38.5156 L 183.90699999999998 22.2656 L 179.45389999999998 27.1094 L 188.75079999999997 38.5154 L 196.64139999999998 38.5154 z M 187.969 1.4059999999999988 L 170.23499999999999 19.765 L 170.23499999999999 1.4059999999999988 L 163.8287 1.4059999999999988 L 163.8287 38.515 L 170.23499999999999 38.515 L 170.23499999999999 29.765 L 196.563 1.4059999999999988 L 187.9692 1.4059999999999988 z M 207.0313 1.4059999999999988 L 213.43759999999997 1.4059999999999988 L 213.43759999999997 32.656 L 232.96859999999998 32.656 L 232.96859999999998 38.5935 L 207.0306 38.5935 L 207.0306 1.4054999999999964 z M 246.0938 1.4059999999999988 L 273.9068 1.4059999999999988 L 273.9068 7.343499999999999 L 246.0938 7.343499999999999 L 246.0938 1.4059999999999988 z M 246.0938 32.6562 L 273.82779999999997 32.6562 L 273.82779999999997 38.5937 L 246.09379999999996 38.5937 L 246.09379999999996 32.6562 z M 246.0938 16.875 L 271.17179999999996 16.875 L 271.17179999999996 22.7344 L 246.09379999999996 22.7344 L 246.09379999999996 16.875 z M 310.703 38.5937 L 317.73429999999996 38.5937 L 304.14029999999997 1.3277 L 297.0309 1.3277 L 304.9215 23.5937 z M 281.9531 38.5937 L 288.8281 38.5937 L 296.9531 18.749699999999997 L 293.5937 9.843399999999997 z M 355.781 38.5937 L 345.70300000000003 24.530699999999996 C 347.05710000000005 24.114059999999995 348.25500000000005 23.619289999999996 349.29670000000004 23.046399999999995 C 350.4426 22.317259999999994 351.3801 21.509999999999994 352.10920000000004 20.624599999999994 C 352.94256000000007 19.634989999999995 353.54150000000004 18.567299999999992 353.90620000000007 17.421399999999995 C 354.37495000000007 16.171399999999995 354.60933000000006 14.765099999999995 354.60933000000006 13.202599999999995 C 354.60933000000006 11.379699999999994 354.29683000000006 9.739099999999995 353.67183000000006 8.280699999999996 C 353.04683000000006 6.874399999999996 352.13533000000007 5.650499999999996 350.93743000000006 4.608799999999996 C 349.7915300000001 3.619189999999996 348.33323000000007 2.837899999999996 346.5623300000001 2.264999999999996 C 344.7394300000001 1.692109999999996 342.8123300000001 1.405619999999996 340.7810300000001 1.405619999999996 L 324.2180300000001 1.405619999999996 L 324.2180300000001 7.343119999999996 L 340.23403000000013 7.343119999999996 C 342.68193000000014 7.343119999999996 344.58293000000015 7.863979999999996 345.9370300000001 8.905619999999995 C 347.29113000000007 9.947259999999995 347.9683300000001 11.509719999999994 347.9683300000001 13.593119999999995 C 347.9683300000001 15.520219999999995 347.29122000000007 17.030619999999995 345.9370300000001 18.124419999999994 C 344.5829300000001 19.270319999999995 342.7079300000001 19.843219999999995 340.3120300000001 19.843219999999995 L 324.2180300000001 19.843219999999995 L 324.2180300000001 38.593219999999995 L 330.7024300000001 38.593219999999995 L 330.7024300000001 25.624219999999994 L 338.9055300000001 25.624219999999994 L 348.0461300000001 38.593219999999995 L 355.7805300000001 38.593219999999995 L 355.7805300000001 38.593219999999995 z M 363.8281 38.5937 L 370.3125 38.5937 L 370.3125 18.671699999999998 L 363.8281 9.531099999999999 L 363.8281 38.5941 z M 389.766 1.4059999999999988 L 389.766 27.108999999999998 L 371.40700000000004 1.4059999999999988 L 364.37570000000005 1.4059999999999988 L 390.78170000000006 38.594 L 396.17230000000006 38.594 L 396.17230000000006 1.4059999999999988 L 389.7660000000001 1.4059999999999988 z M 406.0938 1.4059999999999988 L 433.9068 1.4059999999999988 L 433.9068 7.343499999999999 L 406.0938 7.343499999999999 L 406.0938 1.4059999999999988 z M 406.0938 32.6562 L 433.82779999999997 32.6562 L 433.82779999999997 38.5937 L 406.0938 38.5937 L 406.0938 32.6562 z M 406.0938 16.875 L 431.17179999999996 16.875 L 431.17179999999996 22.7344 L 406.0938 22.7344 L 406.0938 16.875 z M 475.781 38.5937 L 465.70300000000003 24.530699999999996 C 467.05710000000005 24.114059999999995 468.25500000000005 23.619289999999996 469.29670000000004 23.046399999999995 C 470.4426 22.317259999999994 471.3801 21.509999999999994 472.10920000000004 20.624599999999994 C 472.94256000000007 19.634989999999995 473.54150000000004 18.567299999999992 473.90620000000007 17.421399999999995 C 474.37495000000007 16.171399999999995 474.60933000000006 14.765099999999995 474.60933000000006 13.202599999999995 C 474.60933000000006 11.379699999999994 474.29683000000006 9.739099999999995 473.67183000000006 8.280699999999996 C 473.04683000000006 6.874399999999996 472.13533000000007 5.650499999999996 470.93743000000006 4.608799999999996 C 469.7915300000001 3.619189999999996 468.33323000000007 2.837899999999996 466.5623300000001 2.264999999999996 C 464.7394300000001 1.692109999999996 462.8123300000001 1.405619999999996 460.7810300000001 1.405619999999996 L 444.2180300000001 1.405619999999996 L 444.2180300000001 7.343119999999996 L 460.23403000000013 7.343119999999996 C 462.68193000000014 7.343119999999996 464.58293000000015 7.863979999999996 465.9370300000001 8.905619999999995 C 467.29113000000007 9.947259999999995 467.9683300000001 11.509719999999994 467.9683300000001 13.593119999999995 C 467.9683300000001 15.520219999999995 467.29122000000007 17.030619999999995 465.9370300000001 18.124419999999994 C 464.5829300000001 19.270319999999995 462.7079300000001 19.843219999999995 460.3120300000001 19.843219999999995 L 444.2180300000001 19.843219999999995 L 444.2180300000001 38.593219999999995 L 450.7024300000001 38.593219999999995 L 450.7024300000001 25.624219999999994 L 458.9055300000001 25.624219999999994 L 468.0461300000001 38.593219999999995 L 475.7805300000001 38.593219999999995 L 475.7805300000001 38.593219999999995 z" stroke-linecap="round" />
</g>
</g>
</g>
</svg>